<svg xmlns="http://www.w3.org/2000/svg" width="1024" height="1024" viewBox="0 0 1024 1024">
  <defs>
    <linearGradient id="shell" x1="162" y1="116" x2="848" y2="908" gradientUnits="userSpaceOnUse">
      <stop offset="0" stop-color="#202629"/>
      <stop offset="0.52" stop-color="#0c1012"/>
      <stop offset="1" stop-color="#080a0c"/>
    </linearGradient>
    <linearGradient id="rim" x1="190" y1="146" x2="826" y2="886" gradientUnits="userSpaceOnUse">
      <stop stop-color="#ffffff" stop-opacity="0.23"/>
      <stop offset="0.44" stop-color="#8bf5ce" stop-opacity="0.08"/>
      <stop offset="1" stop-color="#9b8cff" stop-opacity="0.14"/>
    </linearGradient>
    <linearGradient id="orbit" x1="235" y1="282" x2="802" y2="731" gradientUnits="userSpaceOnUse">
      <stop stop-color="#b6ffe3"/>
      <stop offset="0.48" stop-color="#73e8d0"/>
      <stop offset="1" stop-color="#a293ff"/>
    </linearGradient>
    <radialGradient id="core" cx="0" cy="0" r="1" gradientTransform="translate(512 512) rotate(90) scale(118)" gradientUnits="userSpaceOnUse">
      <stop stop-color="#f7fff9"/>
      <stop offset="0.28" stop-color="#a7ffda"/>
      <stop offset="0.72" stop-color="#66d9c3"/>
      <stop offset="1" stop-color="#4ca993"/>
    </radialGradient>
    <filter id="shadow" x="28" y="38" width="968" height="994" filterUnits="userSpaceOnUse">
      <feDropShadow dx="0" dy="28" stdDeviation="28" flood-color="#000000" flood-opacity="0.48"/>
    </filter>
    <filter id="glow" x="92" y="92" width="840" height="840" filterUnits="userSpaceOnUse">
      <feGaussianBlur stdDeviation="18" result="blur"/>
      <feMerge><feMergeNode in="blur"/><feMergeNode in="SourceGraphic"/></feMerge>
    </filter>
  </defs>
  <g filter="url(#shadow)">
    <rect x="76" y="64" width="872" height="872" rx="212" fill="url(#shell)"/>
    <rect x="77.5" y="65.5" width="869" height="869" rx="210.5" fill="none" stroke="url(#rim)" stroke-width="3"/>
    <path d="M180 326C219 191 331 120 482 108C356 145 268 223 220 350C205 390 191 409 177 408C162 406 164 382 180 326Z" fill="#ffffff" fill-opacity="0.035"/>
  </g>
  <g fill="none" stroke="url(#orbit)" stroke-linecap="round" stroke-width="20" opacity="0.9">
    <ellipse cx="512" cy="512" rx="330" ry="124"/>
    <ellipse cx="512" cy="512" rx="330" ry="124" transform="rotate(60 512 512)"/>
    <ellipse cx="512" cy="512" rx="330" ry="124" transform="rotate(120 512 512)"/>
  </g>
  <g filter="url(#glow)">
    <circle cx="512" cy="512" r="73" fill="url(#core)"/>
    <circle cx="842" cy="512" r="29" fill="#b7ffe4"/>
    <circle cx="347" cy="226" r="29" fill="#8df1d4"/>
    <circle cx="347" cy="798" r="29" fill="#a698ff"/>
  </g>
  <circle cx="512" cy="512" r="24" fill="#ffffff" fill-opacity="0.86"/>
</svg>
